<svg width="100" height="100" viewBox="0 0 100 100" fill="none" xmlns="http://www.w3.org/2000/svg">
    <symbol id="html-icon" viewBox="0 0 100 100" fill="none">
        <g id="html5">
            <g id="html5_2">
                <path id="Vector" d="M14.0214 90.0345L6 0.000488281H94.1867L86.1653 89.9859L50.0204 100"
                    fill="#E44D26" />
                <path id="Vector_2" d="M50.093 92.3445V7.39062H86.1407L79.2617 84.2015" fill="#F16529" />
                <path id="Vector_3"
                    d="M22.3831 18.4014H50.0933V29.4369H34.4881L35.509 40.7397H50.0933V51.7509H25.3972L22.3831 18.4014ZM25.8833 57.293H36.9674L37.7452 66.1165L50.0933 69.4223V80.9439L27.439 74.624"
                    fill="#EBEBEB" />
                <path id="Vector_4"
                    d="M77.7058 18.4014H50.0442V29.4369H76.6849L77.7058 18.4014ZM75.6883 40.7397H50.0442V51.7752H63.6562L62.368 66.1165L50.0442 69.4223V80.8953L72.6499 74.624"
                    fill="white" />
            </g>
        </g>
    </symbol>

    <symbol id="css-icon" viewBox="0 0 100 100" fill="none">
        <g id="css3">
            <g id="css3_2">
                <path id="polygon2989"
                    d="M94.1749 0.000488281L86.142 89.99L50.0335 100L14.0245 90.0041L6 0.000488281H94.1749Z"
                    fill="#264DE4" />
                <path id="polygon2991" d="M79.2648 84.2598L86.1295 7.35962H50.0874V92.3489L79.2648 84.2598Z"
                    fill="#2965F1" />
                <path id="polygon2993" d="M24.3959 40.7407L25.3852 51.7792H50.0874V40.7407H24.3959Z" fill="#EBEBEB" />
                <path id="polygon2995" d="M50.0875 18.3982H50.0493H22.408L23.4114 29.4369H50.0875V18.3982Z"
                    fill="#EBEBEB" />
                <path id="polygon2997"
                    d="M50.0874 80.8935V69.4088L50.039 69.4217L37.7453 66.1021L36.9594 57.2983H30.9856H25.8784L27.4249 74.6305L50.0366 80.9077L50.0874 80.8935Z"
                    fill="#EBEBEB" />
                <path id="polygon3005"
                    d="M63.6421 51.779L62.3608 66.0952L50.0493 69.4182V80.9024L72.679 74.6306L72.845 72.7657L75.439 43.7047L75.7083 40.7406L77.7011 18.3982H50.0493V29.4369H65.6038L64.5994 40.7406H50.0493V51.779H63.6421Z"
                    fill="white" />
            </g>
        </g>
    </symbol>

    <symbol id="javascript-icon" viewBox="0 0 100 100" fill="none">
        <g id="js">
            <g id="js_2">
                <path id="Vector" d="M100 0.000488281H0V100H100V0.000488281Z" fill="#F7DF1E" />
                <path id="Vector_2"
                    d="M67.1745 78.1259C69.1888 81.4148 71.8094 83.8323 76.4444 83.8323C80.338 83.8323 82.8253 81.8862 82.8253 79.1973C82.8253 75.9751 80.2698 74.8339 75.9841 72.9592L73.6348 71.9513C66.8539 69.0624 62.3491 65.4434 62.3491 57.7926C62.3491 50.745 67.719 45.3799 76.111 45.3799C82.0856 45.3799 86.3809 47.4592 89.4761 52.9037L82.1586 57.6021C80.5475 54.7132 78.8094 53.5751 76.111 53.5751C73.3587 53.5751 71.6142 55.3212 71.6142 57.6021C71.6142 60.4212 73.3602 61.5624 77.392 63.3085L79.7412 64.3148C87.7253 67.7386 92.2333 71.2291 92.2333 79.0767C92.2333 87.537 85.5872 92.1719 76.6618 92.1719C67.9348 92.1719 62.2967 88.0132 59.538 82.5624L67.1745 78.1259ZM33.9793 78.9402C35.4555 81.5592 36.7983 83.7735 40.0269 83.7735C43.1142 83.7735 45.0618 82.5656 45.0618 77.8688V45.9164H54.4586V77.9958C54.4586 87.7259 48.7539 92.1545 40.4269 92.1545C32.9031 92.1545 28.546 88.2608 26.3301 83.5712L33.9793 78.9402Z"
                    fill="black" />
            </g>
        </g>
    </symbol>

    <symbol id="csharp-icon" viewBox="0 0 100 100" fill="none">
        <g id="csharp">
            <g id="csharp_2">
                <path id="Vector"
                    d="M94.0943 29.111C94.0937 27.4461 93.7376 25.9749 93.0175 24.7126C92.3102 23.4707 91.2509 22.43 89.8301 21.6072C78.1017 14.8446 66.3619 8.10261 54.6374 1.33306C51.4765 -0.49178 48.4117 -0.424908 45.2743 1.42613C40.606 4.1789 17.2337 17.5694 10.2691 21.6035C7.40086 23.2642 6.00517 25.8053 6.00448 29.1079C6 42.708 6.00448 56.3081 6 69.9082C6 71.5366 6.3416 72.9795 7.02996 74.2229C7.73763 75.502 8.81171 76.5713 10.2653 77.4127C17.2303 81.4467 40.6057 94.8362 45.2729 97.59C48.4117 99.4421 51.4765 99.5083 54.6384 97.6831C66.3633 90.9132 78.1038 84.1712 89.8339 77.4086C91.2875 76.5675 92.3615 75.4976 93.0692 74.2194C93.7565 72.9757 94.0988 71.5332 94.0988 69.9045C94.0988 69.9045 94.0988 42.7115 94.0943 29.111Z"
                    fill="#A179DC" />
                <path id="Vector_2"
                    d="M50.1843 49.3755L7.03003 74.2228C7.7377 75.502 8.81178 76.5712 10.2654 77.4126C17.2304 81.4466 40.6058 94.8361 45.273 97.5899C48.4118 99.442 51.4765 99.5082 54.6385 97.683C66.3634 90.9131 78.1038 84.1711 89.8339 77.4085C91.2875 76.5674 92.3616 75.4975 93.0693 74.2193L50.1843 49.3755Z"
                    fill="#280068" />
                <path id="Vector_3"
                    d="M94.0945 29.111C94.0938 27.4461 93.7378 25.9749 93.0177 24.7126L50.1843 49.3759L93.0694 74.2195C93.7567 72.9758 94.0983 71.5332 94.099 69.9045C94.099 69.9045 94.099 42.7115 94.0945 29.111Z"
                    fill="#390091" />
                <path id="Vector_4"
                    d="M75.5919 40.0869V44.7314H80.2364V40.0869H82.5586V44.7314H87.2031V47.0536H82.5586V51.6977H87.2031V54.02H82.5586V58.6644H80.2364V54.02H75.5919V58.6644H73.2696V54.02H68.6255V51.6977H73.2696V47.0536H68.6255V44.7314H73.2696V40.0869H75.5919ZM80.2364 47.0533H75.5919V51.6977H80.2364V47.0533Z"
                    fill="white" />
                <path id="Vector_5"
                    d="M50.279 16.7618C62.3931 16.7618 72.9695 23.3408 78.6346 33.1199L78.5794 33.0258L64.3261 41.2324C61.5182 36.4779 56.3705 33.2691 50.4648 33.203L50.2786 33.2019C41.2734 33.2019 33.9726 40.5027 33.9726 49.5079C33.9697 52.3463 34.7112 55.1358 36.1232 57.598C38.9339 62.5048 44.2178 65.8143 50.279 65.8143C56.3777 65.8143 61.6916 62.4628 64.4878 57.5036L64.4199 57.6225L78.6515 65.867C73.0484 75.5634 62.6168 82.122 50.6437 82.2527L50.279 82.2547C38.1266 82.2547 27.5202 75.6351 21.8692 65.8043C19.1106 61.005 17.5322 55.4412 17.5322 49.5079C17.5322 31.4229 32.193 16.7615 50.2786 16.7615L50.279 16.7618Z"
                    fill="white" />
            </g>
        </g>
    </symbol>

    <symbol id="sqlite-icon" viewBox="0 0 100 100" fill="none">
        <path
            d="M72.475 10.1312H17.5719C15.7989 10.1362 14.1 10.8427 12.8464 12.0963C11.5927 13.35 10.8862 15.0489 10.8813 16.8218V77.3718C10.8862 79.1448 11.5927 80.8437 12.8464 82.0974C14.1 83.351 15.7989 84.0575 17.5719 84.0625H53.7344C53.3219 66.0687 59.4688 31.15 72.475 10.1312Z"
            fill="#0F80CC" />
        <path
            d="M69.6469 13H16.7375C15.4815 13.0017 14.2775 13.5013 13.3894 14.3894C12.5013 15.2775 12.0017 16.4815 12 17.7375V73.8687C25.5739 68.7492 39.9024 65.915 54.4031 65.4812C58.2384 47.6494 63.3324 30.1117 69.6469 13Z"
            fill="url(#paint0_linear_9_2)" />
        <path
            d="M85.2813 8.14997C81.5313 4.79685 76.9688 6.14372 72.4688 10.1312C71.8031 10.725 71.1375 11.3812 70.475 12.0843C62.0097 22.0961 56.1562 34.049 53.4375 46.875C54.2767 48.7059 54.9401 50.6124 55.4188 52.5687C55.5313 53.0062 55.6344 53.4187 55.7313 53.7687C55.925 54.5968 56.0438 55.1343 56.0438 55.1343C56.0438 55.1343 55.975 54.875 55.6906 54.0531L55.5063 53.5219C55.475 53.4375 55.4344 53.3375 55.3875 53.2281C54.8875 52.0625 53.5125 49.6031 52.8875 48.5406C52.3656 50.0812 51.9031 51.5218 51.5188 52.825C52.8163 55.6156 53.7691 58.5539 54.3563 61.575C54.3563 61.575 54.2625 61.2156 53.8219 59.9656C52.9753 58.14 52.0366 56.3586 51.0094 54.6281C50.3451 56.3424 50.0635 58.1811 50.1844 60.0156C50.8727 61.3878 51.3901 62.8393 51.725 64.3375C52.7688 68.3468 53.4938 73.2312 53.4938 73.2312C53.4938 73.2312 53.5188 73.5437 53.5563 74.0531C53.419 77.3927 53.4869 80.7375 53.7594 84.0687C53.9143 87.367 54.5286 90.6276 55.5844 93.7562L56.1469 93.4437C54.8375 88.7415 54.3325 83.8518 54.6531 78.9812C55.2414 68.6554 57.2801 58.4637 60.7094 48.7062C66.9906 32.1187 75.7094 18.8062 83.6781 12.4562C76.4094 19.0187 66.5719 40.2687 63.625 48.1375C60.5219 56.2393 58.1642 64.6073 56.5813 73.1375C58.4652 68.3769 62.1538 64.5535 66.8438 62.5C66.8438 62.5 70.6969 57.7468 75.2 50.9593C72.2908 51.5661 69.4167 52.3308 66.5906 53.25C64.4031 54.1687 63.8125 54.4812 63.8125 54.4812C67.9883 51.9665 72.3999 49.8658 76.9844 48.2093C85.3469 35.0375 94.4594 16.3343 85.2844 8.13435"
            fill="#003B57" />
        <defs>
            <linearGradient id="paint0_linear_9_2" x1="40.7565" y1="14.3733" x2="40.7565" y2="70.6188"
                gradientUnits="userSpaceOnUse">
                <stop stop-color="#97D9F6" />
                <stop offset="0.92" stop-color="#0F80CC" />
                <stop offset="1" stop-color="#0F80CC" />
            </linearGradient>
        </defs>
    </symbol>
</svg>